<?xml version="1.0" standalone="no"?>
<!DOCTYPE svg PUBLIC "-//W3C//DTD SVG 20010904//EN"
 "http://www.w3.org/TR/2001/REC-SVG-20010904/DTD/svg10.dtd">
<svg version="1.0" xmlns="http://www.w3.org/2000/svg"
 width="256.000000pt" height="256.000000pt" viewBox="0 0 256.000000 256.000000"
 preserveAspectRatio="xMidYMid meet">
<metadata>
Created by potrace 1.14, written by Peter Selinger 2001-2017
</metadata>
<g transform="translate(0.000000,256.000000) scale(0.100000,-0.100000)"
fill="#000000" stroke="none">
<path d="M1443 2454 c-17 -26 -17 -27 13 -51 57 -49 80 -70 120 -116 23 -25
39 -48 36 -51 -3 -3 0 -6 6 -6 6 0 14 -9 17 -20 3 -11 12 -26 18 -32 12 -13
92 -163 87 -163 -2 0 2 -16 9 -35 10 -33 14 -36 49 -34 54 2 58 3 46 12 -12 7
-40 81 -36 95 1 4 -1 7 -5 7 -5 0 -19 27 -33 60 -14 33 -28 60 -32 60 -5 0 -8
6 -8 14 0 7 -7 19 -15 26 -9 7 -14 15 -12 17 10 10 -182 211 -222 232 -17 10
-23 7 -38 -15z"/>
<path d="M985 2357 c-59 -20 -95 -73 -88 -132 1 -16 3 -40 4 -52 1 -13 6 -23
11 -23 5 0 14 -13 19 -30 6 -16 15 -30 19 -30 5 0 12 -9 15 -20 4 -11 11 -18
16 -15 5 4 9 0 9 -8 0 -7 9 -23 20 -35 11 -12 20 -26 20 -32 0 -5 4 -10 8 -10
5 0 24 -22 43 -50 19 -27 37 -50 42 -50 4 0 7 -7 7 -15 0 -9 7 -18 15 -21 8
-4 13 -10 10 -14 -3 -4 2 -11 11 -14 9 -4 14 -9 11 -12 -2 -3 5 -15 17 -27 11
-13 32 -38 46 -56 14 -19 33 -44 42 -55 51 -61 65 -83 70 -102 4 -17 2 -20
-14 -16 -10 2 -17 6 -15 9 3 2 -21 30 -53 62 -32 33 -63 69 -70 80 -6 12 -15
19 -21 16 -5 -4 -9 0 -9 7 0 7 -18 32 -40 56 -22 24 -37 48 -34 54 4 6 3 8 -3
5 -5 -3 -23 11 -40 31 -17 20 -43 50 -57 65 -14 15 -26 31 -26 35 0 4 -9 13
-20 20 -12 7 -18 17 -15 22 3 6 -1 10 -9 10 -9 0 -16 5 -16 10 0 6 -14 24 -30
40 -16 16 -30 34 -30 40 0 5 -4 10 -10 10 -5 0 -10 4 -10 9 0 6 -82 95 -93
101 -1 0 -12 3 -24 6 -13 4 -23 9 -23 13 0 4 -20 8 -45 10 -28 1 -45 -2 -45
-9 0 -6 -4 -9 -9 -6 -15 10 -71 -47 -71 -72 0 -13 -4 -20 -10 -17 -7 4 -7 -3
0 -19 5 -14 8 -26 5 -26 -2 0 2 -15 10 -34 8 -18 11 -37 7 -41 -4 -5 -1 -5 6
-1 7 4 12 2 12 -7 0 -7 9 -23 20 -35 11 -12 20 -26 20 -32 0 -5 7 -10 15 -10
8 0 15 -4 15 -9 0 -9 39 -54 119 -140 19 -20 43 -49 53 -66 10 -17 18 -23 18
-15 1 8 8 3 16 -12 8 -16 18 -28 23 -28 5 0 11 -9 14 -21 3 -12 10 -18 16 -14
6 3 11 -1 11 -9 0 -8 10 -22 22 -30 12 -9 19 -16 16 -16 -4 0 4 -12 19 -27 14
-16 46 -52 72 -82 25 -29 56 -63 69 -74 12 -11 22 -27 22 -35 0 -9 3 -12 7 -9
6 7 30 -21 31 -37 0 -5 6 -12 14 -17 9 -6 10 -11 2 -19 -9 -9 -30 7 -83 61
-39 40 -71 76 -71 81 0 4 -7 8 -15 8 -8 0 -15 4 -15 9 0 5 -20 30 -45 54 -25
25 -45 50 -45 56 0 5 -9 13 -21 16 -11 4 -18 9 -16 12 3 2 -48 57 -112 121
-115 116 -161 157 -161 146 0 -4 -6 -2 -13 5 -8 6 -23 9 -35 6 -12 -2 -22 1
-22 6 0 6 -7 6 -19 0 -10 -6 -21 -8 -23 -5 -3 2 -11 -2 -18 -11 -7 -8 -18 -15
-24 -15 -28 0 -53 -149 -26 -158 6 -2 10 -12 10 -23 0 -10 5 -19 10 -19 6 0
10 -5 10 -10 0 -6 42 -53 94 -104 52 -52 92 -97 89 -99 -2 -3 5 -8 16 -12 12
-3 21 -13 21 -21 0 -8 5 -14 10 -14 6 0 19 -14 29 -31 10 -17 21 -30 25 -30
10 1 114 -108 108 -114 -3 -3 2 -5 11 -5 9 0 17 -3 17 -8 0 -9 90 -104 141
-148 42 -36 55 -62 31 -60 -9 0 -31 16 -48 33 -17 18 -34 30 -38 26 -3 -3 -6
2 -6 12 0 10 -2 16 -6 13 -3 -3 -30 19 -60 48 -30 30 -59 54 -64 54 -6 0 -10
7 -10 15 0 8 -5 15 -10 15 -6 0 -31 20 -55 44 -25 24 -45 41 -45 37 -1 -3 -9
4 -19 16 -10 12 -21 19 -25 16 -3 -4 -13 2 -22 13 -8 10 -12 12 -8 4 6 -12 5
-13 -7 -3 -8 6 -30 10 -49 9 -19 -2 -43 -4 -53 -5 -10 0 -16 -5 -12 -10 3 -5
-3 -12 -14 -16 -11 -3 -23 -13 -27 -23 -13 -29 -11 -96 3 -110 7 -7 13 -19 13
-26 0 -7 24 -37 54 -67 92 -91 184 -179 190 -179 3 0 25 -20 50 -45 26 -25 51
-45 57 -45 5 0 7 -4 4 -10 -3 -5 -2 -10 4 -10 6 0 31 -20 56 -44 25 -24 45
-42 45 -40 0 2 8 -4 18 -13 11 -10 17 -21 15 -25 -2 -5 3 -8 11 -8 8 0 24 -12
35 -26 12 -15 21 -23 21 -19 0 4 14 -7 30 -25 17 -18 30 -29 30 -26 0 3 8 -2
18 -11 11 -10 17 -21 15 -25 -2 -5 2 -8 9 -8 7 0 32 -18 56 -40 23 -22 44 -40
47 -40 5 0 35 -23 59 -46 6 -5 19 -13 29 -17 9 -3 17 -11 17 -16 0 -5 14 -12
30 -16 17 -4 30 -11 30 -17 0 -6 3 -8 7 -5 3 4 11 2 18 -3 10 -9 35 -14 100
-22 11 -2 23 -7 27 -13 5 -6 8 -5 8 4 0 11 3 11 17 0 15 -12 16 -12 8 1 -7 13
-6 13 7 2 13 -10 17 -10 21 0 4 10 6 10 6 -1 1 -11 4 -11 18 0 11 10 14 10 9
2 -4 -7 -2 -13 3 -13 6 0 11 5 11 10 0 6 11 8 25 6 13 -3 27 0 31 5 3 6 12 8
20 5 8 -3 14 -1 14 5 0 6 5 7 10 4 6 -3 10 -1 10 6 0 7 3 10 6 7 8 -9 76 22
91 41 7 9 13 12 13 7 0 -4 16 4 35 18 19 15 35 25 35 22 0 -2 14 8 32 22 44
38 163 156 163 162 0 3 12 19 28 35 15 16 27 35 27 41 0 6 9 23 21 38 11 14
18 26 15 26 -3 0 2 17 10 37 25 60 27 73 27 188 0 96 -8 260 -13 260 -1 0 -3
12 -5 26 -2 15 -6 44 -10 65 -15 91 -17 110 -18 127 -1 9 -4 17 -7 17 -5 0 -5
81 0 88 2 1 3 10 4 20 1 9 5 23 9 30 5 6 6 12 3 12 -3 0 1 18 9 39 7 22 11 42
8 45 -4 3 -1 6 5 6 7 0 11 3 10 8 -1 4 4 20 10 35 7 16 12 33 12 38 0 5 5 9
12 9 6 0 9 3 5 6 -3 3 5 25 18 48 35 63 38 100 10 131 -13 14 -31 25 -39 25
-8 0 -16 5 -18 11 -5 15 -141 16 -146 1 -2 -6 -10 -8 -18 -5 -8 3 -14 0 -14
-6 0 -6 -7 -11 -15 -11 -18 0 -107 -85 -98 -94 4 -3 2 -6 -3 -6 -27 0 -52
-109 -55 -232 0 -10 -4 -18 -10 -18 -5 0 -8 -3 -7 -7 5 -24 -34 -75 -62 -82
-35 -8 -61 -8 -66 1 -3 4 -9 6 -14 3 -5 -3 -12 1 -17 8 -4 8 -20 22 -35 32
-16 9 -28 24 -28 32 0 8 -4 12 -9 9 -5 -3 -16 4 -24 17 -9 12 -26 34 -39 48
-43 48 -73 92 -70 101 1 5 -2 7 -8 3 -5 -3 -10 -2 -10 3 0 5 -8 18 -17 30 -45
53 -53 63 -53 68 0 4 -12 21 -27 39 -50 59 -73 90 -73 98 0 4 -8 16 -17 26
-10 10 -29 35 -43 55 -14 21 -37 51 -52 68 -16 16 -28 34 -28 38 0 12 -62 75
-72 73 -4 -2 -8 3 -8 11 0 8 -9 18 -20 21 -11 3 -20 11 -20 16 0 5 -8 9 -18 9
-10 0 -22 3 -26 7 -11 11 -29 11 -61 0z"/>
<path d="M1345 2332 c3 -3 0 -11 -6 -19 -6 -7 -8 -13 -3 -13 5 0 2 -5 -6 -10
-13 -8 -12 -10 3 -10 9 0 17 -5 17 -10 0 -6 8 -14 18 -17 20 -8 86 -77 110
-115 9 -16 19 -28 23 -28 4 0 10 -13 14 -30 4 -16 11 -30 16 -30 5 0 11 -11
15 -25 3 -14 11 -25 17 -25 6 0 8 -3 4 -6 -8 -8 20 -76 34 -85 6 -3 21 -4 34
-1 20 3 22 8 15 27 -5 13 -6 26 -3 29 4 3 1 6 -6 6 -7 0 -9 5 -6 10 3 6 1 10
-4 10 -6 0 -11 11 -11 23 0 13 -9 34 -20 47 -11 12 -17 27 -14 31 3 5 -1 12
-10 15 -9 3 -12 12 -9 21 4 11 2 14 -5 9 -7 -4 -12 -2 -12 5 0 13 -76 107
-102 127 -9 7 -23 18 -30 25 -7 7 -21 16 -30 20 -10 3 -18 10 -18 15 0 5 -7 9
-15 9 -8 0 -13 -3 -10 -5z"/>
<path d="M290 1068 c0 -10 5 -18 10 -18 6 0 10 -6 10 -14 0 -7 7 -19 15 -26 8
-7 12 -16 9 -21 -3 -5 0 -9 5 -9 6 0 11 -6 11 -14 0 -8 7 -17 16 -20 8 -3 13
-9 10 -14 -2 -4 24 -38 60 -76 35 -37 64 -64 64 -60 0 5 5 1 11 -8 5 -10 16
-18 24 -18 7 0 15 -4 17 -8 6 -14 78 -52 99 -52 14 0 19 7 19 30 0 18 -5 30
-13 30 -21 0 -128 78 -169 124 -55 61 -57 63 -70 90 -6 14 -15 23 -19 20 -5
-3 -9 4 -9 15 0 12 -5 21 -11 21 -5 0 -8 4 -5 9 9 15 -28 39 -56 38 -19 -1
-28 -7 -28 -19z"/>
<path d="M140 1020 c-16 -10 -23 -40 -9 -40 5 0 9 -6 9 -13 0 -8 9 -24 20 -37
11 -12 18 -26 15 -29 -2 -4 5 -14 16 -21 10 -8 19 -19 19 -25 0 -21 171 -205
190 -205 5 0 14 -8 19 -19 6 -10 22 -21 35 -25 14 -3 31 -12 38 -19 17 -16 65
-37 84 -37 23 0 14 62 -11 75 -43 21 -101 60 -128 85 -69 62 -87 81 -87 90 0
6 -7 10 -15 10 -8 0 -14 3 -13 8 3 14 -14 42 -22 37 -5 -3 -11 4 -15 15 -3 11
-11 20 -16 20 -6 0 -7 5 -4 10 3 6 1 10 -4 10 -6 0 -11 7 -11 15 0 8 -5 15
-12 15 -6 0 -8 3 -5 6 3 4 -2 18 -13 32 -11 13 -17 29 -13 36 3 6 3 8 -1 4 -5
-4 -18 -3 -30 2 -13 4 -29 4 -36 0z"/>
</g>
</svg>
